<?xml version="1.0" encoding="utf-8"?>
<!-- Generator: Adobe Illustrator 24.0.0, SVG Export Plug-In . SVG Version: 6.00 Build 0)  -->
<svg version="1.1" id="Layer_1" xmlns="http://www.w3.org/2000/svg" xmlns:xlink="http://www.w3.org/1999/xlink" x="0px" y="0px"
	 viewBox="0 0 1000 1000" style="enable-background:new 0 0 1000 1000;" xml:space="preserve">
<style type="text/css">
	.st0{fill:url(#SVGID_1_);}
	.st1{fill:url(#SVGID_2_);}
	.st2{fill:#FFFFFF;}
	.st3{fill:#DB1E30;}
	.st4{fill:url(#SVGID_3_);}
	.st5{fill:url(#SVGID_4_);}
	.st6{fill:url(#SVGID_5_);}
	.st7{fill:url(#SVGID_6_);}
	.st8{fill:none;stroke:#000000;stroke-miterlimit:10;}
	.st9{fill:#FFCE04;}
	.st10{fill:url(#SVGID_7_);}
	.st11{fill:url(#SVGID_8_);}
	.st12{fill:url(#SVGID_9_);}
	.st13{fill:none;stroke:#00FFA9;stroke-miterlimit:10;}
	.st14{fill:url(#SVGID_10_);}
	.st15{fill:url(#SVGID_11_);}
	.st16{fill:url(#SVGID_12_);}
	.st17{fill:url(#SVGID_13_);}
	.st18{fill:url(#SVGID_14_);}
	.st19{fill:url(#SVGID_15_);}
	.st20{fill:url(#SVGID_16_);}
	.st21{fill:url(#SVGID_17_);}
	.st22{fill:url(#SVGID_18_);}
	.st23{fill:url(#SVGID_19_);}
	.st24{fill:url(#SVGID_20_);}
</style>
<linearGradient id="SVGID_1_" gradientUnits="userSpaceOnUse" x1="500" y1="0" x2="500" y2="1000">
	<stop  offset="0" style="stop-color:#00103F"/>
	<stop  offset="1" style="stop-color:#00001C"/>
</linearGradient>
<rect class="st0" width="1000" height="1000"/>
<g>
	<g>
		<g>
			<linearGradient id="SVGID_2_" gradientUnits="userSpaceOnUse" x1="685.2747" y1="500" x2="311.6298" y2="500">
				<stop  offset="0" style="stop-color:#00FFA9"/>
				<stop  offset="1" style="stop-color:#004BA9"/>
			</linearGradient>
			<path class="st1" d="M525.21,548.11l-10.63-24.58l-7.89-18.26l-22.81-52.75l-29.24-67.61v-0.01l-2.13-4.91l-22.81-52.75
				l-1.51-3.49l-1.52,3.49l-22.81,52.75l-2.08,4.8l-29.28,67.73l-22.81,52.75l-7.73,17.91l-0.02,0.04l-10.9,25.2
				c-2.39,8.6-3.67,17.67-3.67,27.03c0,24.45,8.71,46.88,23.2,64.34c18.49,22.27,46.38,36.45,77.59,36.45
				c31.26,0,59.19-14.23,77.67-36.57c14.45-17.44,23.12-39.83,23.12-64.22C528.97,565.98,527.66,556.8,525.21,548.11z
				 M475.74,574.98c0,26.27-21.3,47.57-47.57,47.57c-26.27,0-47.57-21.3-47.57-47.57c0-4.69,0.68-9.23,1.96-13.52
				c0.89-3.07,2.11-6.01,3.58-8.79l19.36-47.4l12.28-30.09l9.25-22.66l1.21-2.96l1.21,2.96l9.26,22.68l12.28,30.07L470.87,554
				c0.97,1.96,1.81,4,2.5,6.1C474.92,564.79,475.74,569.79,475.74,574.98z"/>
			<linearGradient id="SVGID_3_" gradientUnits="userSpaceOnUse" x1="685.2747" y1="432.5" x2="311.6298" y2="432.5">
				<stop  offset="0" style="stop-color:#00FFA9"/>
				<stop  offset="1" style="stop-color:#004BA9"/>
			</linearGradient>
			<path class="st4" d="M672.09,416.13c0,12.88-2.74,25.12-7.68,36.16c-13.84,31-44.94,52.6-81.08,52.6h-49.32v32.74l-14.16-32.74
				l-22.74-52.6h86.21c19.97,0,36.16-16.19,36.16-36.16c0-19.98-16.19-36.16-36.16-36.16H465.83l-4.69-10.84l-18.05-41.76h140.23
				c36.15,0,67.25,21.6,81.08,52.6C669.35,391.01,672.09,403.25,672.09,416.13z"/>
		</g>
	</g>
	<linearGradient id="SVGID_4_" gradientUnits="userSpaceOnUse" x1="460.1829" y1="389.6269" x2="653.3494" y2="315.4773">
		<stop  offset="0" style="stop-color:#003255"/>
		<stop  offset="0.3579" style="stop-color:#003255;stop-opacity:0"/>
	</linearGradient>
	<path class="st5" d="M583.64,327.25H443.01l18.1,41.88l4.7,10.87h199.13C651.08,348.91,619.89,327.25,583.64,327.25z"/>
	<linearGradient id="SVGID_5_" gradientUnits="userSpaceOnUse" x1="428.2496" y1="512.3381" x2="528.9741" y2="512.3381">
		<stop  offset="0" style="stop-color:#003255"/>
		<stop  offset="0.3579" style="stop-color:#003255;stop-opacity:0"/>
	</linearGradient>
	<path class="st6" d="M528.97,575.5c0,24.41-8.68,46.79-23.12,64.22l-32.48-79.57c-0.69-2.1-1.53-4.14-2.5-6.1L451,505.32
		l-12.28-30.07l-9.26-22.68l-1.21-2.96l26.4-64.66l29.24,67.61l22.8,52.75l7.91,18.29l10.61,24.54
		C527.66,556.85,528.97,566.02,528.97,575.5z"/>
	<linearGradient id="SVGID_6_" gradientUnits="userSpaceOnUse" x1="350.6258" y1="617.7764" x2="505.8901" y2="617.7764">
		<stop  offset="0" style="stop-color:#003255"/>
		<stop  offset="0.3579" style="stop-color:#003255;stop-opacity:0"/>
	</linearGradient>
	<path class="st7" d="M505.89,639.28c-18.48,22.33-46.41,36.57-77.67,36.57c-31.21,0-59.1-14.19-77.59-36.45l31.98-78.32
		c-1.28,4.29-1.96,8.83-1.96,13.52c0,26.27,21.3,47.57,47.57,47.57c26.27,0,47.57-21.3,47.57-47.57c0-5.19-0.83-10.19-2.37-14.87
		L505.89,639.28z"/>
	<linearGradient id="SVGID_7_" gradientUnits="userSpaceOnUse" x1="594.395" y1="384.0407" x2="643.6595" y2="437.2743">
		<stop  offset="0.0996" style="stop-color:#003255"/>
		<stop  offset="0.7138" style="stop-color:#003255;stop-opacity:0"/>
	</linearGradient>
	<path class="st10" d="M672.62,416.31c0,12.91-2.75,25.19-7.71,36.27H583.6c20.03,0,36.27-16.24,36.27-36.27
		c0-20.04-16.24-36.27-36.27-36.27h81.31C669.86,391.12,672.62,403.39,672.62,416.31z"/>
	<linearGradient id="SVGID_8_" gradientUnits="userSpaceOnUse" x1="497.1187" y1="494.8914" x2="664.1077" y2="494.8914">
		<stop  offset="0" style="stop-color:#003255"/>
		<stop  offset="0.3579" style="stop-color:#003255;stop-opacity:0"/>
	</linearGradient>
	<path class="st11" d="M664.11,452.3c-13.81,30.94-44.86,52.51-80.93,52.51h-49.22v32.68l-14.13-32.68l-22.7-52.51H664.11z"/>
</g>
</svg>
